<svg width="839" height="789" viewBox="0 0 839 789" fill="none" xmlns="http://www.w3.org/2000/svg">
<path d="M407.26 0C409.311 3.01855 437.563 194.316 440.941 215.859C432.709 227.644 398.598 260.213 386.51 272.273L241.182 417.006L202.197 455.6C195.731 461.996 184.866 471.557 180.147 478.607C167.061 498.148 189.423 516.264 207.028 500.98C214.727 494.291 222.397 485.648 229.322 478.764L282.741 425.541L451.986 256.722C477.143 231.636 512.24 193.419 540.707 175.544C570.981 156.731 605.776 146.478 641.41 145.873C693.481 144.884 743.774 164.823 781.02 201.227C817.836 237.355 838.656 286.711 838.842 338.287C838.891 375.104 828.529 411.185 808.959 442.367C793.109 467.416 771.781 486.576 750.922 507.426L690.131 568.188L469.74 788.549C458.256 716.615 448.656 643.353 436.557 571.664C487.992 518.803 542.543 465.619 594.799 413.363L637.152 370.987C647.621 360.508 672.426 342.071 656.244 326.121C654.555 324.477 652.524 323.228 650.297 322.464C634.565 316.963 623.149 333.782 613.022 343.945L570.092 387.095L403.432 554.272L356.588 601.352C337.886 620.17 323.781 636.176 301.203 650.688C269.249 671.293 232.153 682.504 194.138 683.07C142.564 683.646 92.9494 663.324 56.5958 626.742C20.1515 590.521 -0.236216 541.195 0.00206543 489.818C0.302847 450.199 12.0988 411.508 33.9572 378.456C46.6564 359.169 66.2355 341.424 82.7706 324.872L145.457 262.05L407.26 0Z" fill="white"/>
</svg>
